<svg xmlns="http://www.w3.org/2000/svg" xmlns:xlink="http://www.w3.org/1999/xlink" viewBox="0 0 121.8872 121.8872"><defs><style>.cls-1,.cls-2{fill:#040006;}.cls-1{stroke:#040006;stroke-miterlimit:10;stroke-width:4px;}.cls-3{fill:#fff;}.cls-4{fill:#2e4c97;}.cls-5{mask:url(#mask);}.cls-6{fill:#6bafc1;}.cls-7{filter:url(#luminosity-noclip);}</style><filter id="luminosity-noclip" x="6.3478" y="26.0322" width="109.1553" height="89.3745" filterUnits="userSpaceOnUse" color-interpolation-filters="sRGB"><feFlood flood-color="#fff" result="bg"/><feBlend in="SourceGraphic" in2="bg"/></filter><mask id="mask" x="6.3478" y="26.0322" width="109.1553" height="89.3745" maskUnits="userSpaceOnUse"><g class="cls-7"><path class="cls-1" d="M60.938,113.4066a53.0641,53.0641,0,0,0,45.0307-24.9524,7.8287,7.8287,0,1,0-13.2709-8.3089,37.27,37.27,0,0,1-31.76,17.6038Z"/><path class="cls-2" d="M43.0122,93.1719"/></g></mask></defs><title>favicon</title><g id="Capa_2" data-name="Capa 2"><g id="FAVICON"><circle class="cls-3" cx="60.9436" cy="60.9436" r="60.9436"/><path class="cls-4" d="M60.938,113.4066a53.0959,53.0959,0,0,1-37.5444-90.64,53.1017,53.1017,0,0,1,81.5677,7.8526A7.8288,7.8288,0,0,1,91.987,39.3841a37.4369,37.4369,0,1,0,.7108,40.7612,7.8287,7.8287,0,1,1,13.2709,8.3089A53.0641,53.0641,0,0,1,60.938,113.4066Z"/><g class="cls-5"><path class="cls-6" d="M94.4756,53.8026H92.1172a32.2865,32.2865,0,0,0-63.2442,0H27.3748c-10.5083,0-19.027,8.8468-19.027,19.76s8.5187,19.76,19.027,19.76H94.4756c10.5083,0,19.027-8.8468,19.027-19.76S104.9839,53.8026,94.4756,53.8026Z"/><path class="cls-3" d="M94.4757,95.3222H27.3751c-11.5947,0-21.0273-9.7612-21.0273-21.76,0-11.9663,9.3818-21.7075,20.9336-21.76a34.2888,34.2888,0,0,1,66.4277,0h.7666c11.5948,0,21.0274,9.7612,21.0274,21.76S106.0705,95.3222,94.4757,95.3222ZM27.3751,55.8027c-9.3886,0-17.0273,7.9668-17.0273,17.76s7.6387,17.76,17.0273,17.76H94.4757c9.3887,0,17.0274-7.9668,17.0274-17.76s-7.6387-17.76-17.0274-17.76h-3.99l-.3271-1.5991a30.287,30.287,0,0,0-59.3262,0l-.3272,1.5991Z"/></g><g id="aire"><path class="cls-3" d="M80.883,78.03a8.5525,8.5525,0,0,1-8.5425-8.5432,1.6408,1.6408,0,1,1,3.2816,0,5.2611,5.2611,0,1,0,5.2609-5.2609H40.1021a1.641,1.641,0,0,1,0-3.282H80.883a8.5431,8.5431,0,0,1,0,17.0861Z"/><path class="cls-3" d="M59.3273,79.9179A6.2648,6.2648,0,0,1,53.07,73.66a1.6408,1.6408,0,1,1,3.2816,0,2.9758,2.9758,0,1,0,2.976-2.9757H33.205a1.6411,1.6411,0,0,1,0-3.2821H59.3273a6.2577,6.2577,0,0,1,0,12.5154Z"/><path class="cls-3" d="M67.0484,57.9474H48.9422a1.6411,1.6411,0,0,1,0-3.2821H67.0484a3.8264,3.8264,0,1,0-3.8266-3.8263,1.6408,1.6408,0,1,1-3.2815,0,7.1082,7.1082,0,1,1,7.1081,7.1084Z"/></g></g></g></svg>