<svg xmlns="http://www.w3.org/2000/svg" viewBox="0 0 456.94 106.19"><defs><style>.cls-1{fill:#fff;}.cls-2{opacity:0.5;}</style></defs><title>logo_alt</title><g id="Capa_2" data-name="Capa 2"><g id="_02" data-name="02"><g id="_02-2" data-name="02"><path class="cls-1" d="M16.59,44.81A37.44,37.44,0,0,1,84.14,32.17a7.83,7.83,0,0,0,13-8.77A53.1,53.1,0,0,0,0,53.1c0,1.57.08,3.12.21,4.67A21.2,21.2,0,0,1,16.59,44.81Z"/><path class="cls-1" d="M95.65,70.45a7.83,7.83,0,0,0-10.79,2.48,37.46,37.46,0,0,1-45,15.18H19.53a20.38,20.38,0,0,1-7.61-1.48c1.14,1.38,2.35,2.73,3.63,4a53.13,53.13,0,0,0,63.67,8.69A53.46,53.46,0,0,0,98.13,81.24,7.83,7.83,0,0,0,95.65,70.45Z"/><g id="CDA"><path class="cls-1" d="M144.93,36.2a16.06,16.06,0,0,1,5.67,9.49h-8.95a8.29,8.29,0,0,0-3.05-3.81,8.52,8.52,0,0,0-4.87-1.38,7.42,7.42,0,0,0-6,2.72,11,11,0,0,0-2.28,7.27,10.88,10.88,0,0,0,2.28,7.25,7.45,7.45,0,0,0,6,2.69,8.52,8.52,0,0,0,4.87-1.38,8.31,8.31,0,0,0,3.05-3.76h8.95a16.19,16.19,0,0,1-5.67,9.47,17,17,0,0,1-11.05,3.53A17.32,17.32,0,0,1,124.93,66a15.28,15.28,0,0,1-6-6.3,19.82,19.82,0,0,1-2.1-9.25,19.82,19.82,0,0,1,2.1-9.25,15.37,15.37,0,0,1,6-6.31,17.42,17.42,0,0,1,8.95-2.25A17,17,0,0,1,144.93,36.2Z"/><path class="cls-1" d="M167.56,41.49a8.56,8.56,0,0,1,3.36,3.9v-5h8.41V68h-8.41V63a8.58,8.58,0,0,1-3.36,3.91,10,10,0,0,1-5.44,1.43,11.18,11.18,0,0,1-6.11-1.7,11.69,11.69,0,0,1-4.25-4.92,17.06,17.06,0,0,1-1.56-7.52,17,17,0,0,1,1.56-7.54,11.69,11.69,0,0,1,4.25-4.9,11.19,11.19,0,0,1,6.11-1.71A10,10,0,0,1,167.56,41.49Zm-7.1,7.76a7,7,0,0,0-1.65,5,7,7,0,0,0,1.65,4.94,6.2,6.2,0,0,0,8.76,0,6.89,6.89,0,0,0,1.7-4.9,6.85,6.85,0,0,0-1.7-4.92,6.24,6.24,0,0,0-8.76,0Z"/><path class="cls-1" d="M189.92,31.4V68h-8.46V31.4Z"/><path class="cls-1" d="M192.64,29.44a5.95,5.95,0,0,1,7.32,0,4.16,4.16,0,0,1,1.38,3.19A4.1,4.1,0,0,1,200,35.78a5.95,5.95,0,0,1-7.32,0,4.08,4.08,0,0,1-1.39-3.15A4.13,4.13,0,0,1,192.64,29.44Zm7.86,11V68H192V40.4Z"/><path class="cls-1" d="M218.55,41.49a8.36,8.36,0,0,1,3.32,3.9v-14h8.45V68h-8.45V63a8.38,8.38,0,0,1-3.32,3.91,9.94,9.94,0,0,1-5.44,1.43,11.18,11.18,0,0,1-6.11-1.7,11.76,11.76,0,0,1-4.25-4.92,17.06,17.06,0,0,1-1.56-7.52,17,17,0,0,1,1.56-7.54,11.76,11.76,0,0,1,4.25-4.9,11.19,11.19,0,0,1,6.11-1.71A9.94,9.94,0,0,1,218.55,41.49Zm-7.1,7.76a7,7,0,0,0-1.65,5,7,7,0,0,0,1.65,4.94,6.2,6.2,0,0,0,8.76,0,6.89,6.89,0,0,0,1.7-4.9,6.85,6.85,0,0,0-1.7-4.92,6.24,6.24,0,0,0-8.76,0Z"/><path class="cls-1" d="M248.38,41.49a8.68,8.68,0,0,1,3.36,3.9v-5h8.41V68h-8.41V63a8.7,8.7,0,0,1-3.36,3.91,10,10,0,0,1-5.45,1.43,11.12,11.12,0,0,1-6.1-1.7,11.71,11.71,0,0,1-4.26-4.92A17.06,17.06,0,0,1,231,54.2a17,17,0,0,1,1.55-7.54,11.71,11.71,0,0,1,4.26-4.9,11.13,11.13,0,0,1,6.1-1.71A10,10,0,0,1,248.38,41.49Zm-7.1,7.76a7,7,0,0,0-1.66,5,6.93,6.93,0,0,0,1.66,4.94,6.19,6.19,0,0,0,8.75,0,6.9,6.9,0,0,0,1.71-4.9A6.85,6.85,0,0,0,250,49.28a6.23,6.23,0,0,0-8.75,0Z"/><path class="cls-1" d="M278.2,41.49a8.28,8.28,0,0,1,3.31,3.9v-14H290V68h-8.46V63a8.31,8.31,0,0,1-3.31,3.91,10,10,0,0,1-5.44,1.43,11.15,11.15,0,0,1-6.11-1.7,11.69,11.69,0,0,1-4.25-4.92,17.06,17.06,0,0,1-1.56-7.52,17,17,0,0,1,1.56-7.54,11.69,11.69,0,0,1,4.25-4.9,11.16,11.16,0,0,1,6.11-1.71A10,10,0,0,1,278.2,41.49Zm-7.1,7.76a7,7,0,0,0-1.65,5,7,7,0,0,0,1.65,4.94,6.2,6.2,0,0,0,8.76,0,6.94,6.94,0,0,0,1.7-4.9,6.89,6.89,0,0,0-1.7-4.92,6.24,6.24,0,0,0-8.76,0Z"/><path class="cls-1" d="M316,42.23a9.67,9.67,0,0,1,3.66,4.85V31.4h5.68V68H319.7V61.67A9.64,9.64,0,0,1,316,66.51a10.8,10.8,0,0,1-6.34,1.83,12.08,12.08,0,0,1-6.35-1.68A11.53,11.53,0,0,1,299,61.82a16.58,16.58,0,0,1-1.58-7.47A16.45,16.45,0,0,1,299,46.93a11.55,11.55,0,0,1,4.38-4.85,12.08,12.08,0,0,1,6.35-1.68A10.8,10.8,0,0,1,316,42.23Zm-10.61,5.51a9.28,9.28,0,0,0-2.25,6.61,9.27,9.27,0,0,0,2.25,6.6,7.84,7.84,0,0,0,6,2.4,8.19,8.19,0,0,0,4.25-1.11,8,8,0,0,0,3-3.14,10.94,10.94,0,0,0,0-9.48,8,8,0,0,0-3-3.16,8.19,8.19,0,0,0-4.25-1.11A7.87,7.87,0,0,0,305.43,47.74Z"/><path class="cls-1" d="M353.57,55.48h-21q.15,4.22,2.33,6.24a7.61,7.61,0,0,0,5.39,2,7.8,7.8,0,0,0,4.77-1.43,6,6,0,0,0,2.4-3.81h6a11.53,11.53,0,0,1-6.77,8.58,14.78,14.78,0,0,1-6.18,1.26,14.24,14.24,0,0,1-7-1.68,12,12,0,0,1-4.78-4.84,15.38,15.38,0,0,1-1.73-7.47,15.26,15.26,0,0,1,1.73-7.42,12,12,0,0,1,4.78-4.85,15.48,15.48,0,0,1,14,0,11.45,11.45,0,0,1,4.6,4.55,13,13,0,0,1,1.61,6.45A12.38,12.38,0,0,1,353.57,55.48Zm-6.4-7a6.31,6.31,0,0,0-2.77-2.67,8.51,8.51,0,0,0-3.83-.87,7.92,7.92,0,0,0-5.54,2,8.26,8.26,0,0,0-2.43,6h15.48A8.37,8.37,0,0,0,347.17,48.44Z"/><path class="cls-1" d="M361.14,31.4V68H355.5V31.4Z"/><path class="cls-1" d="M391.61,61.62H378.5L376.33,68h-8.91l12.81-34.72H390L402.79,68h-9Zm-2.18-6.43-4.35-12.86-4.4,12.86Z"/><path class="cls-1" d="M402.93,29.44a5.95,5.95,0,0,1,7.32,0,4.13,4.13,0,0,1,1.39,3.19,4.08,4.08,0,0,1-1.39,3.15,5.95,5.95,0,0,1-7.32,0,4.1,4.1,0,0,1-1.38-3.15A4.16,4.16,0,0,1,402.93,29.44Zm7.87,11V68h-8.46V40.4Z"/><path class="cls-1" d="M425.46,41.59a10.43,10.43,0,0,1,5.42-1.49v9h-2.43a8.3,8.3,0,0,0-5.21,1.44q-1.86,1.42-1.86,4.85V68h-8.46V40.4h8.46v5.19A12.09,12.09,0,0,1,425.46,41.59Z"/><path class="cls-1" d="M456.7,55.73H437.55a6.4,6.4,0,0,0,1.59,4.48,5.07,5.07,0,0,0,3.66,1.36,5,5,0,0,0,3.11-.94,4.44,4.44,0,0,0,1.64-2.42h8.95a11.77,11.77,0,0,1-2.38,5.21A12.54,12.54,0,0,1,449.47,67a14.59,14.59,0,0,1-6.28,1.31,14.78,14.78,0,0,1-7.19-1.7,12.14,12.14,0,0,1-4.92-4.92,15.26,15.26,0,0,1-1.79-7.52,15.39,15.39,0,0,1,1.76-7.54,12,12,0,0,1,4.92-4.9,16.22,16.22,0,0,1,14.44,0,12,12,0,0,1,4.83,4.73,14.14,14.14,0,0,1,1.7,7A11.94,11.94,0,0,1,456.7,55.73Zm-9.77-7.64a5.37,5.37,0,0,0-3.74-1.36,5.49,5.49,0,0,0-3.85,1.39,5.78,5.78,0,0,0-1.74,4.05h10.79A5.12,5.12,0,0,0,446.93,48.09Z"/></g><g id="CLN" class="cls-2"><path class="cls-1" d="M132.22,77.27a7.17,7.17,0,0,1,2.57,3.85h-2.12a5.15,5.15,0,0,0-1.93-2.47,5.54,5.54,0,0,0-3.26-.92,5.06,5.06,0,0,0-2.73.74,5,5,0,0,0-1.9,2.13,7,7,0,0,0-.7,3.24,7,7,0,0,0,.7,3.21,5.09,5.09,0,0,0,1.9,2.12,5.15,5.15,0,0,0,2.73.74,5.62,5.62,0,0,0,3.26-.92,5.2,5.2,0,0,0,1.93-2.47h2.12a7.18,7.18,0,0,1-2.57,3.84,7.58,7.58,0,0,1-4.71,1.41,7.43,7.43,0,0,1-3.88-1A6.9,6.9,0,0,1,121,88a8.74,8.74,0,0,1-.94-4.11A8.83,8.83,0,0,1,121,79.7a7,7,0,0,1,2.62-2.83,7.43,7.43,0,0,1,3.88-1A7.64,7.64,0,0,1,132.22,77.27Z"/><path class="cls-1" d="M147.75,79.48V91.63h-2V88.78a4.11,4.11,0,0,1-1.65,2.27,4.9,4.9,0,0,1-2.76.78,4.52,4.52,0,0,1-3.41-1.36,5.43,5.43,0,0,1-1.3-3.91V79.48h2v6.88a4,4,0,0,0,.93,2.81,3.33,3.33,0,0,0,2.53,1,3.46,3.46,0,0,0,2.65-1.07,4.44,4.44,0,0,0,1-3.14V79.48Z"/><path class="cls-1" d="M152.44,75.25V91.63h-2V75.25Z"/><path class="cls-1" d="M155.14,75a1.48,1.48,0,0,1,1-.34,1.49,1.49,0,0,1,1,.34,1.28,1.28,0,0,1,0,1.8,1.44,1.44,0,0,1-1,.34,1.43,1.43,0,0,1-1-.34,1.28,1.28,0,0,1,0-1.8Zm2,4.47V91.63h-2V79.48Z"/><path class="cls-1" d="M167.8,80.21a4.57,4.57,0,0,1,1.71,2.37v-3.1h2V91.63h-2v-3.1a4.57,4.57,0,0,1-1.71,2.37,5,5,0,0,1-3,.89,5.52,5.52,0,0,1-2.88-.75,5.31,5.31,0,0,1-2-2.16,8,8,0,0,1,0-6.63,5.24,5.24,0,0,1,2-2.18,5.52,5.52,0,0,1,2.88-.75A5,5,0,0,1,167.8,80.21Zm-5.4,2.09a5.32,5.32,0,0,0,0,6.53,3.88,3.88,0,0,0,3,1.19,4.14,4.14,0,0,0,2.14-.56A3.76,3.76,0,0,0,169,87.9a4.85,4.85,0,0,0,.53-2.33,4.94,4.94,0,0,0-.53-2.35,3.7,3.7,0,0,0-1.47-1.56,4.23,4.23,0,0,0-2.14-.54A3.87,3.87,0,0,0,162.4,82.3Z"/><path class="cls-1" d="M183.42,80.56a5.24,5.24,0,0,1,1.88,3.32h-2.12a3.08,3.08,0,0,0-1.21-2,4.23,4.23,0,0,0-4.38-.26,3.48,3.48,0,0,0-1.41,1.5,6.11,6.11,0,0,0,0,5,3.46,3.46,0,0,0,1.41,1.49,3.85,3.85,0,0,0,1.93.49,3.93,3.93,0,0,0,2.45-.75,3.15,3.15,0,0,0,1.21-2.06h2.12a5.19,5.19,0,0,1-1.88,3.33,5.94,5.94,0,0,1-3.85,1.23,6.27,6.27,0,0,1-3.1-.75,5.44,5.44,0,0,1-2.12-2.16,7.61,7.61,0,0,1,0-6.63,5.37,5.37,0,0,1,2.12-2.18,6.27,6.27,0,0,1,3.1-.75A6,6,0,0,1,183.42,80.56Z"/><path class="cls-1" d="M195.37,80.21a4.57,4.57,0,0,1,1.71,2.37v-3.1h2V91.63h-2v-3.1a4.57,4.57,0,0,1-1.71,2.37,5,5,0,0,1-3,.89,5.52,5.52,0,0,1-2.88-.75,5.31,5.31,0,0,1-2-2.16,8,8,0,0,1,0-6.63,5.24,5.24,0,0,1,2-2.18,5.52,5.52,0,0,1,2.88-.75A5,5,0,0,1,195.37,80.21ZM190,82.3a5.36,5.36,0,0,0,0,6.53,3.92,3.92,0,0,0,3,1.19,4.14,4.14,0,0,0,2.14-.56,3.76,3.76,0,0,0,1.47-1.56,4.85,4.85,0,0,0,.53-2.33,4.94,4.94,0,0,0-.53-2.35,3.7,3.7,0,0,0-1.47-1.56,4.23,4.23,0,0,0-2.14-.54A3.91,3.91,0,0,0,190,82.3Zm6.64-6.37-4.72,2.59V77.09l4.72-2.8Z"/><path class="cls-1" d="M211.59,80.64a5.47,5.47,0,0,1,1.31,3.93v7.06h-2V84.75A3.89,3.89,0,0,0,210,82a3.32,3.32,0,0,0-2.52-1,3.44,3.44,0,0,0-2.66,1.08,4.41,4.41,0,0,0-1,3.13v6.44h-2V79.48h2v2.88a4.19,4.19,0,0,1,1.65-2.29,4.79,4.79,0,0,1,2.74-.79A4.53,4.53,0,0,1,211.59,80.64Z"/></g><path class="cls-1" d="M86.63,48.59h-4L82.32,47A30.29,30.29,0,0,0,23,47l-.33,1.6H19.53c-9.39,0-17,8-17,17.76s7.63,17.76,17,17.76H68.11a34.41,34.41,0,0,0,14.2-12.77,10.81,10.81,0,0,1,19.59,2.82,18.18,18.18,0,0,0,1.76-7.81C103.66,56.55,96,48.59,86.63,48.59ZM41.1,47.45H59.21a3.83,3.83,0,1,0-3.83-3.83,1.64,1.64,0,1,1-3.28,0,7.11,7.11,0,1,1,7.11,7.11H41.1a1.64,1.64,0,0,1,0-3.28ZM51.49,72.7a6.25,6.25,0,0,1-6.26-6.25,1.64,1.64,0,1,1,3.28,0,3,3,0,1,0,3-3H25.36a1.64,1.64,0,0,1,0-3.28H51.49a6.26,6.26,0,0,1,0,12.51ZM73,70.81a8.55,8.55,0,0,1-8.54-8.54,1.64,1.64,0,0,1,3.28,0A5.26,5.26,0,1,0,73,57H32.26a1.64,1.64,0,1,1,0-3.28H73a8.54,8.54,0,0,1,0,17.08Z"/></g></g></g></svg>