<svg xmlns="http://www.w3.org/2000/svg" xmlns:xlink="http://www.w3.org/1999/xlink" viewBox="0 0 465.08 377.21"><defs><style>.cls-1,.cls-2{fill:#040006;}.cls-1{stroke:#040006;stroke-miterlimit:10;stroke-width:6px;}.cls-3{fill:#2e4c97;}.cls-4{fill:#253e8c;}.cls-5{fill:#6bafc1;}.cls-6{fill:#ccc;}.cls-7{mask:url(#mask);}.cls-8{fill:#fff;}.cls-9{filter:url(#luminosity-noclip);}</style><filter id="luminosity-noclip" x="0" y="18.82" width="109.16" height="90.37" filterUnits="userSpaceOnUse" color-interpolation-filters="sRGB"><feFlood flood-color="#fff" result="bg"/><feBlend in="SourceGraphic" in2="bg"/></filter><mask id="mask" x="0" y="18.82" width="109.16" height="90.37" maskUnits="userSpaceOnUse"><g class="cls-9"><path class="cls-1" d="M54.59,106.19a53,53,0,0,0,45-25,7.83,7.83,0,1,0-13.27-8.31,37.27,37.27,0,0,1-31.76,17.6Z"/><path class="cls-2" d="M36.66,86"/></g></mask></defs><title>logo</title><g id="Capa_2" data-name="Capa 2"><g id="Capa_1-2" data-name="Capa 1"><g id="_01" data-name="01"><path class="cls-3" d="M54.59,106.19A53.09,53.09,0,0,1,17.05,15.55,53.1,53.1,0,0,1,98.61,23.4a7.83,7.83,0,1,1-13,8.77,37.43,37.43,0,1,0,.71,40.76,7.83,7.83,0,1,1,13.27,8.31,53,53,0,0,1-45,25Z"/><path class="cls-4" d="M153.07,32a16.07,16.07,0,0,1,5.66,9.5h-8.95a8.17,8.17,0,0,0-3-3.81,8.55,8.55,0,0,0-4.87-1.39,7.42,7.42,0,0,0-6,2.73,10.93,10.93,0,0,0-2.27,7.27,10.84,10.84,0,0,0,2.27,7.24,7.45,7.45,0,0,0,6,2.7,8.47,8.47,0,0,0,4.87-1.39,8.19,8.19,0,0,0,3-3.76h8.95a16.12,16.12,0,0,1-5.66,9.47A17,17,0,0,1,142,64.12a17.45,17.45,0,0,1-8.95-2.25,15.25,15.25,0,0,1-6-6.31,19.78,19.78,0,0,1-2.1-9.24,19.79,19.79,0,0,1,2.1-9.25,15.25,15.25,0,0,1,6-6.31A17.45,17.45,0,0,1,142,28.51,17.13,17.13,0,0,1,153.07,32Z"/><path class="cls-4" d="M175.7,37.31a8.7,8.7,0,0,1,3.36,3.91v-5h8.41V63.82h-8.41v-5a8.7,8.7,0,0,1-3.36,3.91,10.08,10.08,0,0,1-5.45,1.43,11.13,11.13,0,0,1-6.1-1.71,11.59,11.59,0,0,1-4.26-4.92A17,17,0,0,1,158.33,50a17,17,0,0,1,1.56-7.55,11.68,11.68,0,0,1,4.26-4.89,11.13,11.13,0,0,1,6.1-1.71A10.08,10.08,0,0,1,175.7,37.31Zm-7.1,7.77a7,7,0,0,0-1.66,5A7,7,0,0,0,168.6,55a6.2,6.2,0,0,0,8.75,0A6.87,6.87,0,0,0,179.06,50a6.89,6.89,0,0,0-1.71-4.93A5.76,5.76,0,0,0,173,43.3,5.67,5.67,0,0,0,168.6,45.08Z"/><path class="cls-4" d="M198.05,27.22v36.6h-8.46V27.22Z"/><path class="cls-4" d="M200.77,25.27a5.95,5.95,0,0,1,7.32,0,4.14,4.14,0,0,1,1.38,3.19,4.08,4.08,0,0,1-1.38,3.14,5.95,5.95,0,0,1-7.32,0,4.09,4.09,0,0,1-1.39-3.14A4.15,4.15,0,0,1,200.77,25.27Zm7.86,11V63.82h-8.45V36.23Z"/><path class="cls-4" d="M226.69,37.31A8.36,8.36,0,0,1,230,41.22v-14h8.46v36.6H230v-5a8.36,8.36,0,0,1-3.31,3.91,10,10,0,0,1-5.44,1.43,11.14,11.14,0,0,1-6.11-1.71,11.59,11.59,0,0,1-4.26-4.92A17,17,0,0,1,209.33,50a17,17,0,0,1,1.55-7.55,11.68,11.68,0,0,1,4.26-4.89,11.14,11.14,0,0,1,6.11-1.71A10,10,0,0,1,226.69,37.31Zm-7.1,7.77a7,7,0,0,0-1.66,5A7,7,0,0,0,219.59,55a6.2,6.2,0,0,0,8.75,0A6.87,6.87,0,0,0,230.05,50a6.89,6.89,0,0,0-1.71-4.93A5.74,5.74,0,0,0,224,43.3,5.68,5.68,0,0,0,219.59,45.08Z"/><path class="cls-4" d="M256.51,37.31a8.58,8.58,0,0,1,3.36,3.91v-5h8.41V63.82h-8.41v-5a8.58,8.58,0,0,1-3.36,3.91,10,10,0,0,1-5.44,1.43A11.16,11.16,0,0,1,245,62.46a11.57,11.57,0,0,1-4.25-4.92A17,17,0,0,1,239.15,50a17,17,0,0,1,1.56-7.55A11.66,11.66,0,0,1,245,37.59a11.16,11.16,0,0,1,6.11-1.71A10,10,0,0,1,256.51,37.31Zm-7.1,7.77a7,7,0,0,0-1.65,5A7,7,0,0,0,249.41,55a6.22,6.22,0,0,0,8.76,0,6.91,6.91,0,0,0,1.7-4.89,6.93,6.93,0,0,0-1.7-4.93,5.78,5.78,0,0,0-4.38-1.8A5.71,5.71,0,0,0,249.41,45.08Z"/><path class="cls-4" d="M286.33,37.31a8.33,8.33,0,0,1,3.32,3.91v-14h8.45v36.6h-8.45v-5a8.33,8.33,0,0,1-3.32,3.91,10,10,0,0,1-5.44,1.43,11.13,11.13,0,0,1-6.1-1.71,11.59,11.59,0,0,1-4.26-4.92A17,17,0,0,1,269,50a17,17,0,0,1,1.56-7.55,11.68,11.68,0,0,1,4.26-4.89,11.13,11.13,0,0,1,6.1-1.71A10,10,0,0,1,286.33,37.31Zm-7.09,7.77a7,7,0,0,0-1.66,5A7,7,0,0,0,279.24,55a5.67,5.67,0,0,0,4.37,1.78A5.73,5.73,0,0,0,288,54.92,6.87,6.87,0,0,0,289.7,50,6.89,6.89,0,0,0,288,45.1a5.78,5.78,0,0,0-4.38-1.8A5.67,5.67,0,0,0,279.24,45.08Z"/><path class="cls-5" d="M324.17,38.06a9.53,9.53,0,0,1,3.66,4.84V27.22h5.69v36.6h-5.69V57.49a9.52,9.52,0,0,1-3.66,4.85,10.79,10.79,0,0,1-6.33,1.83,12.11,12.11,0,0,1-6.36-1.68,11.47,11.47,0,0,1-4.37-4.85,16.45,16.45,0,0,1-1.59-7.47,16.38,16.38,0,0,1,1.59-7.42,11.44,11.44,0,0,1,4.37-4.84,12.11,12.11,0,0,1,6.36-1.68A10.79,10.79,0,0,1,324.17,38.06Zm-10.61,5.51a9.27,9.27,0,0,0-2.25,6.6,9.28,9.28,0,0,0,2.25,6.61,7.84,7.84,0,0,0,6,2.4,8.2,8.2,0,0,0,4.25-1.12,7.89,7.89,0,0,0,3-3.14,10.83,10.83,0,0,0,0-9.47,7.91,7.91,0,0,0-3-3.17,8.19,8.19,0,0,0-4.25-1.11A7.84,7.84,0,0,0,313.56,43.57Z"/><path class="cls-5" d="M361.71,51.31h-21q.15,4.2,2.32,6.23a7.58,7.58,0,0,0,5.39,2,7.92,7.92,0,0,0,4.78-1.43,5.91,5.91,0,0,0,2.39-3.81h6a11.62,11.62,0,0,1-6.78,8.58,14.71,14.71,0,0,1-6.18,1.26,14.24,14.24,0,0,1-7-1.68,11.92,11.92,0,0,1-4.77-4.85,15.27,15.27,0,0,1-1.73-7.47,15.21,15.21,0,0,1,1.73-7.42,11.89,11.89,0,0,1,4.77-4.84,15.55,15.55,0,0,1,14,0,11.57,11.57,0,0,1,4.6,4.55,14,14,0,0,1,1.41,8.88Zm-6.41-7.05a6.37,6.37,0,0,0-2.77-2.67,8.64,8.64,0,0,0-3.83-.86,7.91,7.91,0,0,0-5.54,2,8.31,8.31,0,0,0-2.42,6h15.48A8.43,8.43,0,0,0,355.3,44.26Z"/><path class="cls-5" d="M369.28,27.22v36.6h-5.64V27.22Z"/><path class="cls-4" d="M399.74,57.44h-13.1l-2.18,6.38h-8.9L388.37,29.1h9.74l12.81,34.72h-9ZM397.57,51l-4.36-12.85L388.81,51Z"/><path class="cls-4" d="M411.07,25.27a5.95,5.95,0,0,1,7.32,0,4.14,4.14,0,0,1,1.38,3.19,4.08,4.08,0,0,1-1.38,3.14,5.95,5.95,0,0,1-7.32,0,4.06,4.06,0,0,1-1.39-3.14A4.12,4.12,0,0,1,411.07,25.27Zm7.86,11V63.82h-8.46V36.23Z"/><path class="cls-4" d="M433.6,37.41A10.39,10.39,0,0,1,439,35.93v9h-2.42a8.42,8.42,0,0,0-5.22,1.43c-1.24,1-1.85,2.58-1.85,4.85V63.82h-8.46V36.23h8.46v5.19A12,12,0,0,1,433.6,37.41Z"/><path class="cls-4" d="M464.83,51.56H445.69c.1,2.08.62,3.57,1.58,4.47a5.1,5.1,0,0,0,3.66,1.36,5,5,0,0,0,3.12-.94A4.35,4.35,0,0,0,455.68,54h8.95a11.63,11.63,0,0,1-2.37,5.22,12.64,12.64,0,0,1-4.65,3.61,15.87,15.87,0,0,1-13.48-.4,12.14,12.14,0,0,1-4.92-4.92A15.22,15.22,0,0,1,437.43,50a15.43,15.43,0,0,1,1.75-7.55,12,12,0,0,1,4.93-4.89,16.22,16.22,0,0,1,14.44,0,11.91,11.91,0,0,1,4.82,4.72,14.07,14.07,0,0,1,1.71,7A12.1,12.1,0,0,1,464.83,51.56Zm-9.77-7.64a5.34,5.34,0,0,0-3.73-1.36,5.55,5.55,0,0,0-3.86,1.38A5.82,5.82,0,0,0,445.74,48h10.78A5.06,5.06,0,0,0,455.06,43.92Z"/><path class="cls-6" d="M144.86,77.41a8.27,8.27,0,0,1,3,4.42h-2.45A6,6,0,0,0,143.15,79a6.37,6.37,0,0,0-3.74-1.06,5.89,5.89,0,0,0-3.15.86,5.79,5.79,0,0,0-2.19,2.44,8.13,8.13,0,0,0-.8,3.73,8,8,0,0,0,.8,3.7A5.8,5.8,0,0,0,139.41,92a6.44,6.44,0,0,0,3.74-1.06,6,6,0,0,0,2.22-2.84h2.45a8.27,8.27,0,0,1-3,4.42,8.76,8.76,0,0,1-5.43,1.62A8.54,8.54,0,0,1,135,92.93a7.94,7.94,0,0,1-3-3.24A10.08,10.08,0,0,1,130.87,85,10.21,10.21,0,0,1,132,80.2,8,8,0,0,1,135,77a8.54,8.54,0,0,1,4.46-1.16A8.76,8.76,0,0,1,144.86,77.41Z"/><path class="cls-6" d="M162.72,79.94v14H160.4V90.65a4.65,4.65,0,0,1-1.9,2.61,5.59,5.59,0,0,1-3.17.9,5.2,5.2,0,0,1-3.92-1.56,6.28,6.28,0,0,1-1.51-4.5V79.94h2.32v7.93a4.52,4.52,0,0,0,1.07,3.22,3.82,3.82,0,0,0,2.91,1.14A4,4,0,0,0,159.26,91a5.12,5.12,0,0,0,1.14-3.6V79.94Z"/><path class="cls-6" d="M168.12,75.08V93.93h-2.31V75.08Z"/><path class="cls-6" d="M171.23,74.81a1.65,1.65,0,0,1,1.15-.39,1.67,1.67,0,0,1,1.15.39,1.36,1.36,0,0,1,.43,1,1.34,1.34,0,0,1-.43,1,1.63,1.63,0,0,1-1.15.4,1.61,1.61,0,0,1-1.15-.4,1.31,1.31,0,0,1-.43-1A1.32,1.32,0,0,1,171.23,74.81Zm2.3,5.13v14h-2.32v-14Z"/><path class="cls-6" d="M185.8,80.79a5.28,5.28,0,0,1,2,2.72V79.94h2.32v14h-2.32V90.37a5.28,5.28,0,0,1-2,2.72,5.78,5.78,0,0,1-3.46,1,6.4,6.4,0,0,1-3.31-.86,6,6,0,0,1-2.28-2.49,9.18,9.18,0,0,1,0-7.63,6,6,0,0,1,2.28-2.5,6.4,6.4,0,0,1,3.31-.86A5.78,5.78,0,0,1,185.8,80.79Zm-6.22,2.4a6.12,6.12,0,0,0,0,7.52A4.49,4.49,0,0,0,183,92.07a4.84,4.84,0,0,0,2.46-.63,4.52,4.52,0,0,0,1.69-1.8,5.65,5.65,0,0,0,.61-2.69,5.72,5.72,0,0,0-.61-2.7,4.39,4.39,0,0,0-1.69-1.8,4.94,4.94,0,0,0-2.46-.62A4.49,4.49,0,0,0,179.58,83.19Z"/><path class="cls-6" d="M203.77,81.19A6,6,0,0,1,205.94,85h-2.45a3.55,3.55,0,0,0-1.39-2.36,4.52,4.52,0,0,0-2.81-.86,4.43,4.43,0,0,0-2.23.57,4,4,0,0,0-1.62,1.72,7,7,0,0,0,0,5.73,4.1,4.1,0,0,0,1.62,1.72,4.53,4.53,0,0,0,2.23.56,4.46,4.46,0,0,0,2.81-.87,3.58,3.58,0,0,0,1.39-2.37h2.45a6,6,0,0,1-2.17,3.84,6.85,6.85,0,0,1-4.43,1.41,7.31,7.31,0,0,1-3.57-.86,6.2,6.2,0,0,1-2.43-2.49,8.71,8.71,0,0,1,0-7.63,6.16,6.16,0,0,1,2.43-2.5,7.31,7.31,0,0,1,3.57-.86A6.8,6.8,0,0,1,203.77,81.19Z"/><path class="cls-6" d="M217.52,80.79a5.35,5.35,0,0,1,2,2.72V79.94h2.31v14H219.5V90.37a5.35,5.35,0,0,1-2,2.72,5.73,5.73,0,0,1-3.45,1,6.38,6.38,0,0,1-3.31-.86,6.08,6.08,0,0,1-2.29-2.49,9.28,9.28,0,0,1,0-7.63,6,6,0,0,1,2.29-2.5,6.38,6.38,0,0,1,3.31-.86A5.73,5.73,0,0,1,217.52,80.79Zm-6.22,2.4a6.16,6.16,0,0,0,0,7.52,4.49,4.49,0,0,0,3.43,1.36,4.79,4.79,0,0,0,2.46-.63,4.45,4.45,0,0,0,1.69-1.8A5.65,5.65,0,0,0,219.5,87a5.72,5.72,0,0,0-.62-2.7,4.33,4.33,0,0,0-1.69-1.8,4.89,4.89,0,0,0-2.46-.62A4.49,4.49,0,0,0,211.3,83.19Zm7.64-7.32-5.43,3V77.19L218.94,74Z"/><path class="cls-6" d="M236.19,81.28a6.32,6.32,0,0,1,1.5,4.53v8.12h-2.32V86a4.49,4.49,0,0,0-1.07-3.21,3.8,3.8,0,0,0-2.9-1.12,4,4,0,0,0-3.06,1.23,5.12,5.12,0,0,0-1.15,3.61v7.41h-2.32v-14h2.32v3.32a4.78,4.78,0,0,1,1.9-2.63,5.52,5.52,0,0,1,3.15-.91A5.25,5.25,0,0,1,236.19,81.28Z"/><g class="cls-7"><path class="cls-5" d="M88.13,46.59H85.77a32.28,32.28,0,0,0-63.24,0H21c-10.51,0-19,8.84-19,19.76s8.52,19.76,19,19.76h67.1c10.51,0,19-8.85,19-19.76S98.64,46.59,88.13,46.59Z"/><path class="cls-8" d="M88.13,88.11H21c-11.6,0-21-9.76-21-21.76S9.38,44.64,20.93,44.59a34.29,34.29,0,0,1,66.43,0h.77c11.59,0,21,9.76,21,21.76S99.72,88.11,88.13,88.11ZM21,48.59c-9.39,0-17,8-17,17.76s7.64,17.76,17,17.76h67.1c9.39,0,17-8,17-17.76s-7.64-17.76-17-17.76h-4L83.81,47a30.29,30.29,0,0,0-59.33,0l-.32,1.6Z"/></g><g id="aire"><path class="cls-8" d="M74.54,70.81A8.55,8.55,0,0,1,66,62.27a1.64,1.64,0,1,1,3.28,0A5.27,5.27,0,1,0,74.54,57H33.75a1.64,1.64,0,0,1,0-3.28H74.54a8.54,8.54,0,0,1,0,17.08Z"/><path class="cls-8" d="M53,72.7a6.26,6.26,0,0,1-6.26-6.25,1.64,1.64,0,1,1,3.28,0,3,3,0,1,0,3-3H26.86a1.64,1.64,0,0,1,0-3.28H53A6.26,6.26,0,1,1,53,72.7Z"/><path class="cls-8" d="M60.7,50.73H42.59a1.64,1.64,0,0,1,0-3.28H60.7a3.83,3.83,0,1,0-3.83-3.83,1.64,1.64,0,1,1-3.28,0,7.11,7.11,0,1,1,7.11,7.11Z"/></g></g></g><g id="_02" data-name="02"><g id="_02-2" data-name="02"><path class="cls-8" d="M72.37,377.21a8.56,8.56,0,0,1-8.55-8.55,1.64,1.64,0,1,1,3.28,0,5.27,5.27,0,1,0,5.27-5.26H31.58a1.64,1.64,0,0,1,0-3.28H72.37a8.55,8.55,0,0,1,0,17.09Z"/></g></g></g></svg>