<svg xmlns="http://www.w3.org/2000/svg" xmlns:xlink="http://www.w3.org/1999/xlink" viewBox="0 0 340.08 200.06"><defs><style>.cls-1,.cls-2{fill:#040006;}.cls-1{stroke:#040006;stroke-miterlimit:10;stroke-width:6px;}.cls-3{fill:#8ea2c6;}.cls-4{fill:#828282;}.cls-5{mask:url(#mask);}.cls-6{fill:#4b648d;}.cls-7{fill:#fff;}.cls-8{filter:url(#luminosity-noclip);}</style><filter id="luminosity-noclip" x="113.64" y="18.82" width="109.16" height="90.37" filterUnits="userSpaceOnUse" color-interpolation-filters="sRGB"><feFlood flood-color="#fff" result="bg"/><feBlend in="SourceGraphic" in2="bg"/></filter><mask id="mask" x="113.64" y="18.82" width="109.16" height="90.37" maskUnits="userSpaceOnUse"><g class="cls-8"><path class="cls-1" d="M168.23,106.19a53.07,53.07,0,0,0,45-25A7.83,7.83,0,0,0,200,72.93a37.28,37.28,0,0,1-31.76,17.6Z"/><path class="cls-2" d="M150.3,86"/></g></mask></defs><title>logo</title><g id="Capa_2" data-name="Capa 2"><g id="_03" data-name="03"><g id="_01" data-name="01"><path class="cls-3" d="M168.23,106.19a53.1,53.1,0,0,1-37.55-90.64,53.11,53.11,0,0,1,81.57,7.85,7.83,7.83,0,1,1-13,8.77A37.43,37.43,0,1,0,200,72.93a7.83,7.83,0,0,1,13.27,8.31,53.07,53.07,0,0,1-45,25Z"/><path class="cls-3" d="M28.07,131.54a16.1,16.1,0,0,1,5.66,9.5H24.78a8.27,8.27,0,0,0-3-3.81,8.54,8.54,0,0,0-4.87-1.38,7.41,7.41,0,0,0-6,2.72,11,11,0,0,0-2.27,7.27,10.83,10.83,0,0,0,2.27,7.24,7.45,7.45,0,0,0,6,2.7,8.47,8.47,0,0,0,4.87-1.39,8.21,8.21,0,0,0,3-3.75h8.95a16.18,16.18,0,0,1-5.66,9.47A17,17,0,0,1,17,163.64a17.45,17.45,0,0,1-9-2.25,15.28,15.28,0,0,1-6-6.3,21.42,21.42,0,0,1,0-18.5,15.31,15.31,0,0,1,6-6.31A17.45,17.45,0,0,1,17,128,17.13,17.13,0,0,1,28.07,131.54Z"/><path class="cls-3" d="M50.7,136.84a8.68,8.68,0,0,1,3.36,3.9v-5h8.41v27.6H54.06v-5a8.7,8.7,0,0,1-3.36,3.91,10,10,0,0,1-5.45,1.43,11.2,11.2,0,0,1-6.1-1.7,11.71,11.71,0,0,1-4.26-4.92,19,19,0,0,1,0-15.06,11.71,11.71,0,0,1,4.26-4.9,11.13,11.13,0,0,1,6.1-1.71A10,10,0,0,1,50.7,136.84Zm-7.1,7.76a8.2,8.2,0,0,0,0,9.89,6.2,6.2,0,0,0,8.75-.05,7.89,7.89,0,0,0,0-9.81A5.73,5.73,0,0,0,48,142.82,5.67,5.67,0,0,0,43.6,144.6Z"/><path class="cls-3" d="M73.05,126.75v36.6H64.59v-36.6Z"/><path class="cls-3" d="M75.77,124.79a5.95,5.95,0,0,1,7.32,0A4.14,4.14,0,0,1,84.47,128a4.07,4.07,0,0,1-1.38,3.14,5.91,5.91,0,0,1-7.32,0A4.08,4.08,0,0,1,74.38,128,4.15,4.15,0,0,1,75.77,124.79Zm7.86,11v27.6H75.18v-27.6Z"/><path class="cls-3" d="M101.69,136.84a8.34,8.34,0,0,1,3.31,3.9v-14h8.46v36.6H105v-5a8.36,8.36,0,0,1-3.31,3.91,10,10,0,0,1-5.44,1.43,11.21,11.21,0,0,1-6.11-1.7,11.71,11.71,0,0,1-4.26-4.92,19.07,19.07,0,0,1,0-15.06,11.71,11.71,0,0,1,4.26-4.9,11.14,11.14,0,0,1,6.11-1.71A10,10,0,0,1,101.69,136.84Zm-7.1,7.76a8.2,8.2,0,0,0,0,9.89,6.2,6.2,0,0,0,8.75-.05,7.89,7.89,0,0,0,0-9.81,6.23,6.23,0,0,0-8.75,0Z"/><path class="cls-3" d="M131.51,136.84a8.56,8.56,0,0,1,3.36,3.9v-5h8.41v27.6h-8.41v-5a8.58,8.58,0,0,1-3.36,3.91,10,10,0,0,1-5.44,1.43A11.24,11.24,0,0,1,120,162a11.69,11.69,0,0,1-4.25-4.92,19,19,0,0,1,0-15.06,11.69,11.69,0,0,1,4.25-4.9,11.16,11.16,0,0,1,6.11-1.71A10,10,0,0,1,131.51,136.84Zm-7.1,7.76a8.24,8.24,0,0,0,0,9.89,6.22,6.22,0,0,0,8.76-.05,7.93,7.93,0,0,0,0-9.81,6.24,6.24,0,0,0-8.76,0Z"/><path class="cls-3" d="M161.33,136.84a8.3,8.3,0,0,1,3.32,3.9v-14h8.45v36.6h-8.45v-5a8.33,8.33,0,0,1-3.32,3.91,9.94,9.94,0,0,1-5.44,1.43,11.2,11.2,0,0,1-6.1-1.7,11.71,11.71,0,0,1-4.26-4.92,19,19,0,0,1,0-15.06,11.71,11.71,0,0,1,4.26-4.9,11.13,11.13,0,0,1,6.1-1.71A9.94,9.94,0,0,1,161.33,136.84Zm-7.09,7.76a8.2,8.2,0,0,0,0,9.89,5.67,5.67,0,0,0,4.37,1.78,5.73,5.73,0,0,0,4.38-1.83,7.89,7.89,0,0,0,0-9.81,5.75,5.75,0,0,0-4.38-1.81A5.67,5.67,0,0,0,154.24,144.6Z"/><path class="cls-3" d="M199.17,137.58a9.52,9.52,0,0,1,3.66,4.85V126.75h5.69v36.6h-5.69V157a9.53,9.53,0,0,1-3.66,4.84,10.79,10.79,0,0,1-6.33,1.83,12.11,12.11,0,0,1-6.36-1.68,11.41,11.41,0,0,1-4.37-4.85,18.2,18.2,0,0,1,0-14.88,11.47,11.47,0,0,1,4.37-4.85,12.11,12.11,0,0,1,6.36-1.68A10.79,10.79,0,0,1,199.17,137.58Zm-10.61,5.51a10.82,10.82,0,0,0,0,13.21,7.84,7.84,0,0,0,6,2.4,8.1,8.1,0,0,0,4.25-1.12,7.83,7.83,0,0,0,3-3.14,10.83,10.83,0,0,0,0-9.47,7.82,7.82,0,0,0-3-3.16,8.2,8.2,0,0,0-4.25-1.12A7.84,7.84,0,0,0,188.56,143.09Z"/><path class="cls-3" d="M236.71,150.83h-21c.1,2.81.87,4.88,2.32,6.24a7.61,7.61,0,0,0,5.39,2,7.85,7.85,0,0,0,4.78-1.43,5.91,5.91,0,0,0,2.39-3.81h6a11.57,11.57,0,0,1-6.78,8.58,14.71,14.71,0,0,1-6.18,1.26,14.24,14.24,0,0,1-7-1.68,11.86,11.86,0,0,1-4.77-4.85,16.86,16.86,0,0,1,0-14.88,11.92,11.92,0,0,1,4.77-4.85,15.51,15.51,0,0,1,14,0,11.51,11.51,0,0,1,4.6,4.55,13.05,13.05,0,0,1,1.61,6.45A13.2,13.2,0,0,1,236.71,150.83Zm-6.41-7a6.26,6.26,0,0,0-2.77-2.67,8.51,8.51,0,0,0-3.83-.87,7.92,7.92,0,0,0-5.54,2,8.27,8.27,0,0,0-2.42,6h15.48A8.37,8.37,0,0,0,230.3,143.79Z"/><path class="cls-3" d="M244.28,126.75v36.6h-5.64v-36.6Z"/><path class="cls-3" d="M274.74,157h-13.1l-2.18,6.38h-8.9l12.81-34.72h9.74l12.81,34.72h-9Zm-2.17-6.43-4.36-12.86-4.4,12.86Z"/><path class="cls-3" d="M286.07,124.79a5.95,5.95,0,0,1,7.32,0,4.14,4.14,0,0,1,1.38,3.19,4.07,4.07,0,0,1-1.38,3.14,5.91,5.91,0,0,1-7.32,0,4,4,0,0,1-1.39-3.14A4.12,4.12,0,0,1,286.07,124.79Zm7.86,11v27.6h-8.46v-27.6Z"/><path class="cls-3" d="M308.6,136.94a10.4,10.4,0,0,1,5.41-1.49v9.05h-2.42a8.35,8.35,0,0,0-5.22,1.44c-1.24.95-1.85,2.57-1.85,4.84v12.57h-8.46v-27.6h8.46v5.19A11.83,11.83,0,0,1,308.6,136.94Z"/><path class="cls-3" d="M339.83,151.08H320.69c.1,2.08.62,3.57,1.58,4.48a5.15,5.15,0,0,0,3.66,1.36,5.07,5.07,0,0,0,3.12-.94,4.41,4.41,0,0,0,1.63-2.43h8.95a11.63,11.63,0,0,1-2.37,5.22,12.54,12.54,0,0,1-4.65,3.61,14.65,14.65,0,0,1-6.28,1.31,14.9,14.9,0,0,1-7.2-1.7,12.26,12.26,0,0,1-4.92-4.92,16.94,16.94,0,0,1,0-15.06,12.06,12.06,0,0,1,4.93-4.9,16.22,16.22,0,0,1,14.44,0,11.93,11.93,0,0,1,4.82,4.73,14,14,0,0,1,1.71,7A12,12,0,0,1,339.83,151.08Zm-9.77-7.64a5.34,5.34,0,0,0-3.73-1.36,5.55,5.55,0,0,0-3.86,1.38,5.82,5.82,0,0,0-1.73,4.06h10.78A5.09,5.09,0,0,0,330.06,143.44Z"/><path class="cls-4" d="M129.77,183.3a8.26,8.26,0,0,1,2.95,4.42h-2.44a6,6,0,0,0-2.22-2.84,6.47,6.47,0,0,0-3.75-1.06,5.79,5.79,0,0,0-5.33,3.3,8.18,8.18,0,0,0-.81,3.74,8,8,0,0,0,.81,3.69,5.76,5.76,0,0,0,5.33,3.29,6.4,6.4,0,0,0,3.75-1.06,6,6,0,0,0,2.22-2.84h2.44a8.26,8.26,0,0,1-2.95,4.42,8.76,8.76,0,0,1-5.43,1.62,8.54,8.54,0,0,1-4.46-1.16,7.94,7.94,0,0,1-3-3.24,10.07,10.07,0,0,1-1.08-4.72,10.25,10.25,0,0,1,1.08-4.77,8,8,0,0,1,3-3.25,8.54,8.54,0,0,1,4.46-1.16A8.76,8.76,0,0,1,129.77,183.3Z"/><path class="cls-4" d="M147.63,185.84v14h-2.32v-3.29a4.7,4.7,0,0,1-1.9,2.61,5.62,5.62,0,0,1-3.17.91,5.2,5.2,0,0,1-3.92-1.57,6.22,6.22,0,0,1-1.51-4.5v-8.15h2.32v7.92A4.54,4.54,0,0,0,138.2,197a3.83,3.83,0,0,0,2.91,1.13,3.94,3.94,0,0,0,3-1.24,5.07,5.07,0,0,0,1.15-3.6v-7.44Z"/><path class="cls-4" d="M153,181v18.86h-2.32V181Z"/><path class="cls-4" d="M156.14,180.7a1.88,1.88,0,0,1,2.29,0,1.44,1.44,0,0,1,0,2.07,1.88,1.88,0,0,1-2.29,0,1.46,1.46,0,0,1,0-2.07Zm2.29,5.14v14h-2.31v-14Z"/><path class="cls-4" d="M170.7,186.68a5.34,5.34,0,0,1,2,2.72v-3.56H175v14h-2.32v-3.57a5.32,5.32,0,0,1-2,2.73,5.73,5.73,0,0,1-3.45,1,6.32,6.32,0,0,1-3.31-.87,6,6,0,0,1-2.28-2.49,8.22,8.22,0,0,1-.83-3.8,8.38,8.38,0,0,1,.83-3.83,5.93,5.93,0,0,1,2.28-2.49,6.32,6.32,0,0,1,3.31-.87A5.73,5.73,0,0,1,170.7,186.68Zm-6.21,2.41a6.11,6.11,0,0,0,0,7.51,4.47,4.47,0,0,0,3.42,1.37,4.8,4.8,0,0,0,2.46-.64,4.41,4.41,0,0,0,1.7-1.8,5.76,5.76,0,0,0,.61-2.68,5.91,5.91,0,0,0-.61-2.71,4.32,4.32,0,0,0-1.7-1.79,4.79,4.79,0,0,0-2.46-.63A4.47,4.47,0,0,0,164.49,189.09Z"/><path class="cls-4" d="M188.68,187.09a6,6,0,0,1,2.17,3.82H188.4a3.58,3.58,0,0,0-1.39-2.36,4.51,4.51,0,0,0-2.81-.85,4.42,4.42,0,0,0-2.23.56,4.1,4.1,0,0,0-1.62,1.72,7,7,0,0,0,0,5.73,4.1,4.1,0,0,0,1.62,1.72,4.42,4.42,0,0,0,2.23.56,4.52,4.52,0,0,0,2.81-.86,3.62,3.62,0,0,0,1.39-2.37h2.45a6,6,0,0,1-2.17,3.83,6.86,6.86,0,0,1-4.43,1.42,7.2,7.2,0,0,1-3.57-.87,6.07,6.07,0,0,1-2.43-2.49,7.76,7.76,0,0,1-.88-3.8,7.91,7.91,0,0,1,.88-3.83,6,6,0,0,1,2.43-2.49,7.2,7.2,0,0,1,3.57-.87A6.75,6.75,0,0,1,188.68,187.09Z"/><path class="cls-4" d="M202.43,186.68a5.32,5.32,0,0,1,2,2.72v-3.56h2.32v14H204.4v-3.57a5.3,5.3,0,0,1-2,2.73,5.75,5.75,0,0,1-3.45,1,6.35,6.35,0,0,1-3.32-.87,6,6,0,0,1-2.28-2.49,8.22,8.22,0,0,1-.83-3.8,8.38,8.38,0,0,1,.83-3.83,5.93,5.93,0,0,1,2.28-2.49,6.35,6.35,0,0,1,3.32-.87A5.75,5.75,0,0,1,202.43,186.68Zm-6.22,2.41a6.11,6.11,0,0,0,0,7.51,4.5,4.5,0,0,0,3.43,1.37,4.8,4.8,0,0,0,2.46-.64,4.39,4.39,0,0,0,1.69-1.8,5.64,5.64,0,0,0,.61-2.68,5.79,5.79,0,0,0-.61-2.71,4.3,4.3,0,0,0-1.69-1.79,4.79,4.79,0,0,0-2.46-.63A4.5,4.5,0,0,0,196.21,189.09Zm7.63-7.33-5.42,3v-1.65l5.42-3.22Z"/><path class="cls-4" d="M221.09,187.18a6.23,6.23,0,0,1,1.51,4.52v8.13h-2.32V191.9a4.49,4.49,0,0,0-1.07-3.21,3.81,3.81,0,0,0-2.91-1.12,3.94,3.94,0,0,0-3.05,1.24,5.07,5.07,0,0,0-1.15,3.6v7.42h-2.32v-14h2.32v3.31a4.76,4.76,0,0,1,1.9-2.62,5.44,5.44,0,0,1,3.14-.92A5.19,5.19,0,0,1,221.09,187.18Z"/><g class="cls-5"><path class="cls-6" d="M201.77,46.59h-2.36a32.29,32.29,0,0,0-63.25,0h-1.5c-10.5,0-19,8.84-19,19.76s8.52,19.76,19,19.76h67.11c10.5,0,19-8.85,19-19.76S212.27,46.59,201.77,46.59Z"/><path class="cls-7" d="M201.77,88.11h-67.1c-11.6,0-21-9.76-21-21.76S123,44.64,134.57,44.59a34.29,34.29,0,0,1,66.43,0h.77c11.59,0,21,9.76,21,21.76S213.36,88.11,201.77,88.11Zm-67.1-39.52c-9.39,0-17,8-17,17.76s7.64,17.76,17,17.76h67.1c9.38,0,17-8,17-17.76s-7.64-17.76-17-17.76h-4l-.33-1.6a30.29,30.29,0,0,0-59.33,0l-.33,1.6Z"/></g><g id="aire"><path class="cls-7" d="M188.17,70.81a8.55,8.55,0,0,1-8.54-8.54,1.64,1.64,0,1,1,3.28,0A5.26,5.26,0,1,0,188.17,57H147.39a1.64,1.64,0,1,1,0-3.28h40.78a8.54,8.54,0,1,1,0,17.08Z"/><path class="cls-7" d="M166.62,72.7a6.26,6.26,0,0,1-6.26-6.25,1.64,1.64,0,1,1,3.28,0,3,3,0,1,0,3-3H140.49a1.64,1.64,0,0,1,0-3.28h26.13a6.26,6.26,0,0,1,0,12.51Z"/><path class="cls-7" d="M174.34,50.73H156.23a1.64,1.64,0,0,1,0-3.28h18.11a3.83,3.83,0,1,0-3.83-3.83,1.64,1.64,0,1,1-3.28,0,7.11,7.11,0,1,1,7.11,7.11Z"/></g></g></g></g></svg>